<svg width="120" height="125" xmlns="http://www.w3.org/2000/svg"><path d="M1.897 40.013l.85.326L3.92 37.28l.955.367.37-.967-.953-.367 1.324-3.45.954.366.372-.967-.954-.366 1.174-3.059-.85-.326-1.174 3.058-1.072-.411-.371.967 1.072.412-1.325 3.45-1.072-.411-.37.967 1.07.411-1.173 3.059zm3.527-2.86l.785-.599c.42.702.754 1.355.992 1.986 1.33-.224 2.79-.04 4.37.568 1.151.441 1.883.917 2.197 1.428.166.348.156.764-.03 1.248-.2.523-.369.923-.502 1.232l-.963-.07c.195-.39.386-.811.557-1.256.125-.327.098-.607-.06-.818-.215-.262-.747-.556-1.605-.9a8.921 8.921 0 0 0-1.206-.374c.448.982.723 2.062.848 3.22l-.966.214c-.088-1.413-.401-2.628-.92-3.622a5.876 5.876 0 0 0-1.419.025c.19.718.334 1.553.42 2.5l-.975.196a9.236 9.236 0 0 0-.38-2.485 5.61 5.61 0 0 0-1.737.968l-.322-.919a5.875 5.875 0 0 1 1.752-.931 11.399 11.399 0 0 0-.836-1.611zm2.669-.116l1.033-2.692a90.502 90.502 0 0 0-2.167-.877l.36-.941c.615.236 1.342.53 2.173.864l1.154-3.006.89.341-1.125 2.928c2.318.29 4.377-.15 6.159-1.355l.465.898c-1.714 1.067-3.551 1.516-5.52 1.33 1.564 1.2 2.66 2.76 3.28 4.663l-.921.367c-.773-2.246-2.061-3.85-3.88-4.819l-1.013 2.64-.888-.34zm-.546-5.922c.878-.413 1.618-.7 2.224-.871l.226.896c-.664.165-1.43.441-2.29.846l-.16-.871zM25.485 20.53l.715.69c-.22.39-.441.76-.662 1.131l1.824 1.759-.68.705-1.663-1.603a68.783 68.783 0 0 1-2.564 3.81l-.87-.509c.25-.341.492-.692.743-1.034l-6.24-6.014-.767.796-.685-.66 4.625-4.798.544.525 3.76-3.901.665.641c1.651 2.02 2.797 4.018 3.447 5.986 1.293.313 2.642.447 4.027.402l.088 1.018a17.39 17.39 0 0 1-3.819-.395c.322 1.36.426 2.705.292 4.034l-1.04-.05a11.776 11.776 0 0 0-.356-4.27c-2.15-.635-4.14-1.697-5.97-3.188l-.388.403-.565-.544-.748.776 5.624 5.421c.231-.38.452-.75.663-1.13zm-3.944-5.59c1.568 1.277 3.228 2.198 4.981 2.78-.624-1.653-1.585-3.298-2.912-4.928l-2.07 2.147zm2.763 7.582l-1.371-1.321-1.75 1.814 1.714 1.652c.492-.712.954-1.433 1.407-2.145zm-3.775-.138l1.749-1.815-1.533-1.476-1.748 1.814 1.532 1.477zm-2.198-2.118l1.75-1.815-1.563-1.506-1.749 1.815 1.562 1.506zM40.268 8.648l.6 1.403 5.11-2.186-.6-1.403-5.11 2.186zm6.057.028l-5.11 2.186.584 1.365 5.11-2.187-.584-1.364zm.93 2.175l-5.11 2.186 1.18 2.755-.876.374-2.88-6.731a17.61 17.61 0 0 1-1.421 3.547l-.941-.526c1.07-1.981 1.691-3.983 1.869-6.023l-3.411 1.46-.386-.902 3.836-1.641c.004-.596-.018-1.18-.078-1.748l.99-.287c.048.543.092 1.072.105 1.6l6.397-2.738.385.901-6.783 2.903a16.662 16.662 0 0 1-.197 1.851l5.972-2.556 2.974 6.95c.27.631.047 1.107-.663 1.442l-1.441.617-.595-.75c.5-.184.974-.357 1.399-.539.335-.143.436-.369.304-.678l-.628-1.467zm14.746-9.839a22 22 0 0 1 1.607 2.372l-.907.467a16.582 16.582 0 0 0-1.622-2.386l.922-.453zm5.263-.151l.967.26a12.444 12.444 0 0 1-1.246 2.723l2.884-.014.004.98-4.676.023.004.658c-.025.7-.078 1.358-.187 1.947l5.684-.028.005.98-5.096.025c.695 1.886 2.508 3.348 5.453 4.383l-.583.941c-3.086-1.23-4.999-2.916-5.765-5.04-.262.8-.609 1.501-1.054 2.105-.946 1.237-2.495 2.21-4.648 2.907l-.55-.88c2.139-.696 3.632-1.613 4.467-2.737a6.544 6.544 0 0 0 .79-1.67l-5.026.024-.005-.98 5.278-.025c.123-.617.19-1.261.2-1.947l-.003-.658-4.69.023-.004-.98 6.398-.032c.528-.814.985-1.81 1.4-2.988zm18.993 10.325c-2.26 3.092-5.156 4.98-8.675 5.636l.227 1.02c3.446-.627 6.285-2.416 8.512-5.355 0 .182-.01.39-.02.629-.09 3.966.634 7.029 2.2 9.168l.894-.507c-1.509-2.13-2.213-4.988-2.14-8.583.071-2.427-.29-4.291-1.105-5.572l-.98.168c.579.94.945 2.063 1.087 3.396zm22.58 19.448l-2.24 2.194-.696-.71 1.551-1.519-6.884-7.033-1.551 1.518-.686-.7 2.241-2.194 5.612 5.733a16.777 16.777 0 0 0 3.207-.906l.445.994c-1.063.355-2.016.583-2.888.692l1.89 1.931zm-8.307-5.405l5.278 5.392-.64.627a31.308 31.308 0 0 1-3.395-1.006l-.51.5 3.731 3.811-.68.666-3.731-3.812-1.691 1.655c-.54.529-1.095.503-1.643-.057l-1.244-1.27.494-.817c.343.37.724.78 1.146 1.21.235.24.502.233.782-.041l1.44-1.41-3.965-4.052.68-.666 3.966 4.052.83-.813c1.193.478 2.11.815 2.781 1.02l-4.27-4.362.641-.627zm3.374-3.518c-.128.83-.305 1.69-.562 2.568l-.917-.317c.247-.908.424-1.767.522-2.588l.957.337zm2.56 2.235c-.177.82-.414 1.679-.72 2.566l-.947-.327c.326-.907.563-1.766.71-2.576l.957.337zm12.43 28.155l-10.536 4.155-.36-.912 1.03-.405-1.249-3.165-1.159.457-.354-.899 10.666-4.206 1.962 4.975zm-10.23-.677l1.249 3.165 7.75-3.056-1.25-3.165-7.748 3.056zm3.225-9.187l.899 2.28 1.875-.74a26.34 26.34 0 0 1-1.02-1.9l.715-.629c.922 1.879 1.884 3.365 2.893 4.473l-.607.75a16.762 16.762 0 0 1-1.439-1.855l-2.058.812.879 2.227-.873.344-.878-2.227-.651.257a28.866 28.866 0 0 1-1.38 3.178l-1.024-.229c.658-1.042 1.174-1.908 1.53-2.605l-5.873 2.316-.36-.911 5.783-2.28a13.52 13.52 0 0 1-4.238-.903l.862-.791c1.623.76 3.257 1.123 4.9 1.092l.091-.036-.899-2.279.873-.344zm4.088 27.994c-3.7-.987-6.508-3.002-8.395-6.045l-.868.581c1.832 2.986 4.528 4.984 8.074 5.995-.17.066-.367.131-.593.21-3.73 1.351-6.323 3.136-7.75 5.37l.797.65c1.44-2.178 3.847-3.87 7.224-5.103 2.289-.813 3.896-1.824 4.794-3.048l-.511-.853c-.666.88-1.58 1.628-2.772 2.243zm-9.932 28.086l-2.86-1.288.41-.907 1.977.892 4.045-8.972-1.978-.892.402-.894 2.86 1.29-3.297 7.313c.563.93 1.238 1.817 2.011 2.657l-.764.776c-.718-.86-1.276-1.665-1.696-2.438l-1.11 2.463zm2.01-9.705l-3.101 6.88-.817-.369a31.308 31.308 0 0 1-.299-3.528l-.65-.294-2.193 4.863-.867-.391 2.192-4.863-2.157-.972c-.69-.31-.867-.836-.545-1.551l.73-1.62.94.162c-.22.454-.462.958-.71 1.507-.138.306-.034.553.324.714l1.838.828 2.33-5.169.867.392-2.33 5.169 1.06.477c-.011 1.285.01 2.262.062 2.962l2.509-5.565.817.368zm4.505 1.862c-.82.183-1.685.33-2.597.411l-.039-.97c.936-.1 1.801-.247 2.601-.455l.035 1.014zm-1.15 3.198c-.828.133-1.714.225-2.653.263l-.04-1.001c.964-.026 1.85-.118 2.658-.276l.035 1.014zM93.87 109.6l-6.478-7.014.72-.665.541.586 1.872-1.729-.817-.884.72-.665 6.754 7.312-.956.883c.326.766.733 1.496 1.21 2.198l-.835.581c-.437-.72-.805-1.429-1.075-2.133l-1.655 1.53zm-2.708-8.133l-1.872 1.729 2.08 2.252 1.872-1.729-2.08-2.252zm2.697 2.92l-1.871 1.73 1.957 2.118 1.871-1.729-1.957-2.118zm-3.982 4.48c-1.529-.17-2.777-.408-3.757-.685l.206-.952c1.049.289 2.317.527 3.806.715l-.255.922zm-1.333 5.633c-3.154-3.414-5.059-5.58-5.697-6.477-.62-.877-.517-1.715.347-2.513.206-.19.575-.492 1.087-.928l.802.518c-.45.378-.83.71-1.15 1.004-.483.447-.513.97-.111 1.571.47.633 2.072 2.45 4.787 5.431l2.829-2.612a11.811 11.811 0 0 1-.596-2.709l.983.178c.211 1.673.868 3.353 1.95 5.06l-.816.583a18.36 18.36 0 0 1-1.134-2.136l-3.28 3.03zM77.68 120.03l-11.283 4.08-.319-.882 5.174-1.87-.414-1.146-4.081 1.476-1.885-5.214 4.239-1.533c-.156-.926-.158-1.714.02-2.374-2.124-.11-4.467.245-7.023 1.08l-.092-.994c2.685-.851 5.174-1.171 7.46-.985.636-1.123 1.969-2.171 3.977-3.165l.722.721c-1.778.807-2.987 1.661-3.611 2.572.916.145 1.803.375 2.648.694l-.543.763c-.805-.29-1.651-.49-2.526-.605-.155.561-.187 1.213-.071 1.945l3.858-1.394 1.885 5.213-4.029 1.457.414 1.145 5.161-1.866.32.882zm-11.574-3.065l.505 1.396 3.146-1.138-.166-.46-.299-.95-3.186 1.152zm4.134-1.494c.083.312.185.633.299.949l.166.46 3.094-1.118-.504-1.396-3.055 1.105zm3.845 1.08l-3.094 1.12.5 1.382 3.094-1.119-.5-1.382zm-3.542 2.845l-.5-1.383-3.147 1.138.5 1.382 3.147-1.137zM47.72 123.46l-.869-.523c.267-.266.547-.518.84-.754l-4.013-.216.043-.797c1.655-2.603 4.546-3.961 8.645-4.063l.385.932c-1.263.016-2.391.137-3.414.377.405.554.84 1.069 1.292 1.527l-.903.372a14.993 14.993 0 0 1-1.343-1.614c-1.486.509-2.665 1.329-3.51 2.433l4.082.22c1.125-.585 2.438-1.005 3.951-1.26l.538.954c-2.514.342-4.421 1.136-5.724 2.412zm1.001-8.709a18.653 18.653 0 0 1-1.429-1.843c-1.588.588-2.856 1.487-3.817 2.669l4.138.222c1.262-.52 2.74-.89 4.448-1.092l.553.927c-3.065.143-5.366.959-6.902 2.419l-.841-.522c.353-.318.72-.62 1.127-.893l-3.83-.206.043-.797c2.162-3.192 5.945-4.7 11.375-4.533l.354.986c-2.182-.103-4.083.06-5.691.507.441.655.9 1.254 1.39 1.785l-.918.371zm-17.434-2.524c.647-.37 1.326-.71 2.024-.993l-.182 1.11c-1.974.924-3.719 2.24-5.24 3.93l-.654-.801a18.88 18.88 0 0 1 2.436-2.194l4.161-8.563.894.435-3.439 7.076zm-3.328 1.885l-3.879-1.885a14.03 14.03 0 0 0-.055 1.78l-.985-.184c.005-.682.048-1.284.124-1.823l.564.056-3.967-1.927.416-.857 8.198 3.984-.416.856zm-.247-2.44l.398-.818-5.956-2.894-.398.819 5.956 2.894zm.863-1.775l.404-.83-5.956-2.895-.404.831 5.956 2.894zm-5.277-4.868l2.123-4.369.881.428-.33.68 4.659 2.264.33-.68.882.429-2.123 4.37-6.422-3.122zm6.917-.14l-4.66-2.264-.966 1.99 4.66 2.263.966-1.99zm-19.553-4.77l-2.023-2.322c-.403.091-.77.224-1.13.408l-.584-.884a5.583 5.583 0 0 1 1.015-.327L4.906 93.51l5.163-4.496 5.755 6.61-5.162 4.495zm-.604-9.796l-.887.773 4.468 5.13.887-.772-4.468-5.13zm2.969 6.437l-4.469-5.131-.865.754 4.468 5.13.866-.753zm-1.478 1.287l-4.469-5.13-.865.753 4.468 5.131.866-.754zm5.453-2.521l-.478-.847c1.192-.592 2.33-.97 3.443-1.141l.15 1.002a9.28 9.28 0 0 0-3.115.986zm-1.57-7.58l2.362 2.713c.534.612.485 1.174-.106 1.69l-2.017 1.755-.671-.77 1.858-1.619c.243-.211.268-.437.057-.68l-2.041-2.344c-.212-.243-.422-.357-.601-.35-.258.003-.753.266-1.476.822l-.402-.93c.96-.689 1.627-1.01 2.012-.973.324.052.675.284 1.024.685zm-2.063 4.283c.053-1.048.162-1.904.307-2.569l.907.231c-.179.712-.307 1.567-.378 2.594l-.836-.256zm-2.727-3.622l.885.27c.273-1.37.583-2.55.938-3.528l-.947-.234c-.32.911-.62 2.081-.876 3.492zM.531 64.916c.067.64.347 1.16.84 1.558a2.229 2.229 0 0 0 1.7.497 2.283 2.283 0 0 0 1.572-.841 2.229 2.229 0 0 0 .496-1.7 2.283 2.283 0 0 0-.841-1.572 2.283 2.283 0 0 0-1.713-.496c-.64.068-1.16.348-1.559.84a2.283 2.283 0 0 0-.495 1.714z" fill="#222" fill-rule="evenodd"/></svg>