<svg width="79" height="77" xmlns="http://www.w3.org/2000/svg"><path d="M6.598 26.738l.685.158-.618 2.675-5.842-1.348.175-.761 5.158 1.19.442-1.914zm-1.526-3.367c-.112.319-.112.61-.001.872.11.263.331.459.662.586l.744-2.13c-.324-.113-.613-.104-.867.028a1.099 1.099 0 0 0-.538.644zm1.192 1.653c.158.05.314.075.467.077.154.002.299-.023.435-.075a.996.996 0 0 0 .37-.257c.112-.118.203-.28.275-.486.096-.275.111-.505.045-.688a1.02 1.02 0 0 0-.302-.447l.249-.713a1.455 1.455 0 0 1 .636.804c.058.179.087.373.086.585a2.058 2.058 0 0 1-.124.666 2.11 2.11 0 0 1-.436.756c-.184.197-.388.34-.614.431a1.81 1.81 0 0 1-.729.127 2.567 2.567 0 0 1-.788-.148 2.503 2.503 0 0 1-.725-.39 1.876 1.876 0 0 1-.492-.568 1.696 1.696 0 0 1-.206-.708 2.046 2.046 0 0 1 .125-.825 1.88 1.88 0 0 1 .358-.624 1.735 1.735 0 0 1 1.197-.595c.232-.016.465.017.696.098.054.019.118.043.193.072.074.029.16.07.257.121l-.973 2.787zm2.185-9.106l3.416 1.858-.352.649-.594-.323c.15.225.227.48.228.764.002.284-.065.552-.202.803-.142.261-.319.474-.532.638a1.882 1.882 0 0 1-.692.342 2.097 2.097 0 0 1-1.52-.197 2.133 2.133 0 0 1-1-1.175 1.887 1.887 0 0 1-.091-.767c.022-.268.104-.532.246-.794.136-.251.324-.453.563-.607.239-.153.494-.227.765-.223l-.587-.32.352-.648zm1.93 3.394a1.3 1.3 0 0 0 .1-1.04 1.31 1.31 0 0 0-.252-.44 1.484 1.484 0 0 0-.422-.336 1.482 1.482 0 0 0-.512-.171 1.357 1.357 0 0 0-.51.025 1.262 1.262 0 0 0-.82.648 1.23 1.23 0 0 0-.091 1.03c.057.157.143.304.259.438.115.135.256.247.421.337.166.09.337.147.512.17a1.256 1.256 0 0 0 1.315-.662zm2.14-7.053a1.537 1.537 0 0 0-.265.26c-.271.339-.366.68-.282 1.022.083.343.307.662.672.956l1.327 1.07-.468.582-3.028-2.443.468-.581.594.479a1.275 1.275 0 0 1-.139-.779c.035-.284.138-.533.31-.747a.976.976 0 0 1 .278-.25l.534.43zm1.05-1.838l.535-.521.478.491a1.336 1.336 0 0 1-.026-.777c.068-.266.22-.515.458-.746.197-.192.395-.324.596-.396.201-.072.4-.09.598-.05.18.03.352.095.512.194.16.1.336.247.527.444l1.601 1.647-.534.52-1.44-1.48a2.345 2.345 0 0 0-.386-.323 1.117 1.117 0 0 0-.4-.172.83.83 0 0 0-.404.022.99.99 0 0 0-.4.252 1.014 1.014 0 0 0-.272.422c-.047.149-.06.3-.04.451.02.152.07.301.149.448a1.8 1.8 0 0 0 .297.404l1.398 1.438-.534.521-2.712-2.79zm14.28-4.826l-1.093-1.953c-.176-.314-.37-.518-.583-.612-.213-.093-.436-.074-.67.057a.832.832 0 0 0-.443.632c-.04.279.05.617.274 1.016l.967 1.729-.65.365-1.072-1.915c-.192-.345-.394-.562-.606-.653-.211-.091-.431-.073-.66.056a.847.847 0 0 0-.443.632c-.045.281.043.621.267 1.02l.966 1.73-.65.364-1.9-3.397.65-.365.34.606a1.208 1.208 0 0 1 .084-.692c.098-.235.273-.424.528-.566.314-.177.595-.248.843-.214.248.035.466.143.654.327a1.297 1.297 0 0 1 .115-.733c.056-.117.131-.229.226-.334.095-.106.21-.197.344-.272.224-.126.433-.197.627-.214.193-.017.371.008.533.074.161.067.31.17.444.311s.253.304.356.488l1.201 2.148-.65.365zm4.71-.818a2.094 2.094 0 0 1-.853.07 1.903 1.903 0 0 1-.739-.254 2.032 2.032 0 0 1-.572-.516 2.104 2.104 0 0 1-.35-.712 2.14 2.14 0 0 1-.072-.796c.026-.265.099-.513.218-.743.12-.23.286-.431.498-.604.213-.173.468-.301.765-.385.302-.085.589-.11.86-.073a1.95 1.95 0 0 1 1.32.773c.161.213.278.452.353.716.074.264.097.528.07.79a1.957 1.957 0 0 1-.726 1.346 2.12 2.12 0 0 1-.773.388zm-.181-.645a1.296 1.296 0 0 0 .813-.652c.077-.15.123-.313.14-.49a1.49 1.49 0 0 0-.054-.537 1.487 1.487 0 0 0-.234-.487 1.358 1.358 0 0 0-.374-.349 1.26 1.26 0 0 0-1.035-.136 1.23 1.23 0 0 0-.8.653 1.405 1.405 0 0 0-.133.493 1.49 1.49 0 0 0 .053.538c.05.181.129.343.234.486a1.254 1.254 0 0 0 1.39.481zM38.559.75a1.531 1.531 0 0 0-.37-.004c-.432.044-.74.218-.924.519-.185.3-.253.684-.204 1.15l.175 1.7-.74.077-.402-3.875.742-.077.078.76c.077-.256.228-.472.454-.648a1.44 1.44 0 0 1 .748-.306.973.973 0 0 1 .373.021l.07.683zm3.547-.056c-.337-.005-.613.087-.827.275-.214.189-.33.46-.346.815l2.252.032c.006-.343-.094-.615-.3-.815a1.095 1.095 0 0 0-.78-.307zm-1.19 1.656c.003.166.027.322.074.468.046.147.116.277.208.39a.994.994 0 0 0 .36.27c.147.069.33.104.547.107.29.005.513-.054.666-.174.154-.121.263-.264.328-.429l.754.011a1.461 1.461 0 0 1-.561.859c-.15.112-.326.2-.527.267-.201.065-.424.096-.67.093a2.1 2.1 0 0 1-.854-.176 1.713 1.713 0 0 1-.601-.446 1.814 1.814 0 0 1-.35-.653 2.578 2.578 0 0 1-.108-.795c.004-.292.051-.563.14-.813.09-.25.218-.466.383-.647.166-.18.368-.32.606-.42.239-.1.512-.147.82-.143.252.004.487.052.705.143a1.73 1.73 0 0 1 1.068 1.642c-.001.057-.004.126-.008.206-.004.08-.015.174-.034.283l-2.946-.043zm12.578.334L52.47 6.442l-.71-.194.178-.654a1.356 1.356 0 0 1-.69.399 1.63 1.63 0 0 1-.827-.012 1.989 1.989 0 0 1-.743-.37 1.882 1.882 0 0 1-.49-.597 2.108 2.108 0 0 1-.157-1.528 2.14 2.14 0 0 1 .912-1.245c.218-.137.46-.225.725-.266.265-.04.541-.021.828.057.275.075.515.211.718.41.204.197.335.428.393.693l.176-.646.71.194zm-2.856 2.664a1.294 1.294 0 0 0 1.032-.141c.143-.09.266-.205.37-.349a1.49 1.49 0 0 0 .231-.488 1.49 1.49 0 0 0 .049-.538 1.362 1.362 0 0 0-.141-.492 1.262 1.262 0 0 0-.818-.65 1.226 1.226 0 0 0-1.021.149c-.14.092-.263.21-.367.353a1.49 1.49 0 0 0-.23.489 1.49 1.49 0 0 0-.05.538c.017.176.063.339.139.487a1.256 1.256 0 0 0 .806.642zm4.464 2.63l-.672-.321 2.582-5.423.672.32-1.195 2.51c.217-.162.466-.253.746-.27.28-.019.55.033.808.156.268.128.49.295.668.5.178.205.304.43.38.676.077.245.105.5.086.767-.02.267-.088.524-.207.772a2.106 2.106 0 0 1-1.114 1.056 1.869 1.869 0 0 1-.764.13 2.018 2.018 0 0 1-.809-.206 1.607 1.607 0 0 1-.63-.529 1.364 1.364 0 0 1-.26-.75l-.29.611zm1.438.048a1.244 1.244 0 0 0 1.022.036 1.35 1.35 0 0 0 .422-.278c.128-.123.233-.27.314-.44a1.49 1.49 0 0 0 .143-.52 1.405 1.405 0 0 0-.047-.508 1.228 1.228 0 0 0-.67-.776 1.26 1.26 0 0 0-1.043-.041 1.36 1.36 0 0 0-.428.28c-.128.123-.232.27-.313.44a1.49 1.49 0 0 0-.144.52c-.015.178.003.346.053.506a1.294 1.294 0 0 0 .691.781zm4.364 3.906a2.096 2.096 0 0 1-.585-.624 1.91 1.91 0 0 1-.26-.739 2.04 2.04 0 0 1 .049-.77c.065-.256.178-.495.339-.718.16-.223.353-.406.577-.551.224-.145.463-.242.717-.29.254-.05.515-.045.782.014.267.06.526.18.776.36.254.185.451.394.591.63a1.957 1.957 0 0 1 .216 1.516c-.067.26-.181.5-.342.722-.16.223-.352.405-.575.548a1.95 1.95 0 0 1-1.503.267 2.116 2.116 0 0 1-.782-.365zm.391-.542a1.294 1.294 0 0 0 1.016.232 1.31 1.31 0 0 0 .469-.196c.148-.097.277-.223.387-.376a1.49 1.49 0 0 0 .235-.486c.047-.172.06-.342.041-.51a1.264 1.264 0 0 0-.536-.897 1.225 1.225 0 0 0-1.008-.221 1.4 1.4 0 0 0-.468.201 1.488 1.488 0 0 0-.387.376 1.49 1.49 0 0 0-.235.487 1.258 1.258 0 0 0 .487 1.39zm7.75 3.055l-2.781 2.726-.521-.534.496-.486c-.252.086-.511.095-.779.025a1.602 1.602 0 0 1-.743-.453 1.716 1.716 0 0 1-.4-.6 1.13 1.13 0 0 1-.06-.594c.031-.182.097-.352.197-.511.101-.159.25-.334.445-.526l1.642-1.61.521.534-1.47 1.44c-.13.129-.24.26-.325.392a1.122 1.122 0 0 0-.168.399.844.844 0 0 0 .02.4.964.964 0 0 0 .25.397c.131.135.271.228.42.278.149.05.3.064.451.044.152-.02.3-.07.447-.15.146-.08.283-.181.41-.305l1.426-1.4.521.534zm-.465 6.472a5.2 5.2 0 0 1-.422-.521 2.51 2.51 0 0 1-.195-.344.926.926 0 0 1-.09-.424.993.993 0 0 1 .16-.485c.104-.173.287-.35.55-.532l1.608-1.112-.408-.593.514-.356.409.593 1.079-.747.423.615-1.079.746.574.833-.514.356-.574-.833-1.474 1.02a1.72 1.72 0 0 0-.344.294.607.607 0 0 0-.136.256.391.391 0 0 0 .02.232c.03.073.072.15.127.23.045.066.098.138.16.217.061.08.113.14.155.18l-.543.375zm7.053 6.351l-3.583 1.518-.287-.68.624-.264a1.353 1.353 0 0 1-.74-.297 1.632 1.632 0 0 1-.5-.658 1.997 1.997 0 0 1-.167-.814c.005-.27.06-.52.166-.755a2.103 2.103 0 0 1 1.103-1.068 2.132 2.132 0 0 1 1.54-.052c.242.087.46.223.656.407.195.184.35.413.466.687.111.263.152.537.122.82a1.36 1.36 0 0 1-.302.737l.615-.26.287.68zm-3.854-.602a1.296 1.296 0 0 0 .748.726c.158.057.325.083.502.076.177-.007.352-.047.526-.12.173-.074.324-.172.452-.295.129-.122.228-.26.3-.415a1.266 1.266 0 0 0 .005-1.046 1.225 1.225 0 0 0-.747-.713 1.398 1.398 0 0 0-.504-.07 1.484 1.484 0 0 0-.526.12 1.486 1.486 0 0 0-.452.295 1.26 1.26 0 0 0-.304 1.442zm1.85 7.238a1.354 1.354 0 0 1-.675-.424 1.634 1.634 0 0 1-.376-.738 1.998 1.998 0 0 1-.019-.83c.053-.265.152-.502.298-.714a2.1 2.1 0 0 1 1.275-.854 2.131 2.131 0 0 1 1.525.224c.222.129.413.301.572.518.16.216.272.469.337.76.062.278.054.554-.026.827-.08.273-.222.497-.429.672l2.709-.609.16.72-5.851 1.316-.161-.72.66-.148zm-.39-1.267a1.298 1.298 0 0 0 .608.849c.144.084.304.14.48.164.175.025.355.017.539-.024.183-.042.35-.111.497-.209.148-.098.271-.216.369-.355a1.265 1.265 0 0 0 .191-1.028 1.226 1.226 0 0 0-.608-.835 1.398 1.398 0 0 0-.483-.16 1.483 1.483 0 0 0-.54.025c-.183.041-.349.111-.497.209a1.26 1.26 0 0 0-.555 1.365zm-.074 9.482l2.234-.09c.36-.015.63-.096.81-.243.18-.148.264-.356.253-.625a.83.83 0 0 0-.36-.68c-.23-.163-.573-.235-1.03-.216l-1.977.08-.03-.746 2.192-.089c.393-.016.679-.098.856-.245.177-.147.26-.353.25-.616a.845.845 0 0 0-.362-.68c-.23-.169-.572-.243-1.029-.225l-1.977.08-.03-.745 3.886-.158.03.746-.693.028c.22.065.412.195.577.389.165.193.253.436.264.727.015.36-.05.644-.193.85a1.143 1.143 0 0 1-.587.436 1.292 1.292 0 0 1 .6.435c.078.102.143.22.194.352.051.133.08.276.086.43.01.258-.021.477-.094.657-.073.18-.176.328-.309.442-.132.114-.292.2-.478.255a2.394 2.394 0 0 1-.596.098l-2.457.1-.03-.747zm2.827 3.652l-.146.732-3.814-.76.147-.732 3.813.76zm1.489.07a.6.6 0 0 1 .386.252.559.559 0 0 1 .095.447.586.586 0 0 1-.26.386.584.584 0 0 1-.456.093.557.557 0 0 1-.376-.26.601.601 0 0 1-.085-.453.572.572 0 0 1 .25-.38.57.57 0 0 1 .446-.085zm-4.46 4.27a8.55 8.55 0 0 1-.26.374c-.09.12-.187.221-.295.303a.911.911 0 0 1-.36.167.936.936 0 0 1-.464-.033 1.072 1.072 0 0 1-.457-.254 1.035 1.035 0 0 1-.259-.411 1.478 1.478 0 0 1-.074-.527 2.39 2.39 0 0 1 .356-1.17c.11-.17.24-.31.394-.417a1.307 1.307 0 0 1 1.152-.168l-.205.7c-.285-.083-.511-.058-.678.075-.167.133-.287.325-.361.578-.067.23-.078.426-.033.585.046.16.162.266.348.32.104.031.196.028.275-.008a.759.759 0 0 0 .237-.186c.08-.087.161-.198.245-.335.085-.136.187-.288.308-.455.085-.13.17-.25.256-.358.086-.11.18-.198.283-.266a.862.862 0 0 1 .342-.133c.125-.02.273-.005.443.045.175.051.32.132.433.243.113.11.197.242.25.395.054.153.079.321.076.505a2.137 2.137 0 0 1-.09.564c-.059.203-.145.384-.256.542a1.416 1.416 0 0 1-.393.38c-.15.097-.313.16-.488.189-.175.03-.356.016-.542-.038l.202-.692c.22.064.407.05.563-.045.155-.095.27-.266.341-.513a.91.91 0 0 0 .013-.532.453.453 0 0 0-.328-.311.38.38 0 0 0-.25.002.584.584 0 0 0-.218.165c-.072.08-.147.18-.227.3l-.278.42zm-2.082 4.666a8.545 8.545 0 0 1-.311.335 1.492 1.492 0 0 1-.334.258.91.91 0 0 1-.381.114.936.936 0 0 1-.454-.098 1.073 1.073 0 0 1-.416-.317c-.1-.13-.167-.279-.199-.444a1.479 1.479 0 0 1 .002-.532 2.39 2.39 0 0 1 .518-1.108c.132-.153.282-.272.449-.356a1.306 1.306 0 0 1 1.163-.003l-.302.664c-.27-.123-.497-.13-.681-.023-.184.108-.33.282-.44.522-.098.218-.137.41-.114.574.022.164.122.287.299.367.098.045.19.055.273.03a.758.758 0 0 0 .261-.15c.09-.075.187-.174.29-.297a8.14 8.14 0 0 1 .369-.407c.103-.116.204-.223.304-.318.1-.096.206-.17.318-.223a.862.862 0 0 1 .357-.083c.127-.002.27.033.432.107.166.076.298.176.394.302.097.126.16.268.192.427.031.158.032.329.003.51-.029.182-.085.364-.168.546-.087.193-.197.36-.33.5s-.28.248-.443.322a1.288 1.288 0 0 1-.51.117 1.205 1.205 0 0 1-.53-.115l.297-.656c.208.094.396.106.563.034.168-.071.305-.224.411-.458a.91.91 0 0 0 .088-.526.453.453 0 0 0-.28-.354.38.38 0 0 0-.25-.033.584.584 0 0 0-.238.132 2.79 2.79 0 0 0-.266.265l-.336.375zm-.392 3.87l-.402.628-3.273-2.101.402-.629 3.273 2.102zm1.36.608a.6.6 0 0 1 .269.376.56.56 0 0 1-.076.451.585.585 0 0 1-.382.264.584.584 0 0 1-.458-.08.558.558 0 0 1-.256-.378.602.602 0 0 1 .087-.454.571.571 0 0 1 .371-.261.57.57 0 0 1 .446.082zm-7.544 1.015a2.1 2.1 0 0 1 .644-.565c.24-.132.488-.21.746-.235.257-.024.513 0 .766.074.254.074.489.195.705.364.217.168.393.367.53.596.136.23.225.472.265.727.04.256.026.517-.042.782-.068.266-.197.52-.386.765-.193.248-.41.439-.65.571a1.952 1.952 0 0 1-1.52.165 2.131 2.131 0 0 1-.708-.365 2.1 2.1 0 0 1-.527-.594 1.96 1.96 0 0 1-.215-1.514c.069-.265.2-.522.392-.771zm.528.41a1.3 1.3 0 0 0-.267 1.01c.027.165.086.324.179.475.092.151.213.285.361.4.15.116.308.2.478.252.169.052.338.071.508.058a1.26 1.26 0 0 0 .913-.507 1.23 1.23 0 0 0 .256-1.002 1.403 1.403 0 0 0-.185-.475 1.485 1.485 0 0 0-.362-.4 1.483 1.483 0 0 0-.477-.252 1.255 1.255 0 0 0-1.404.44zm-.731 5.288l-.55.504-.463-.507c.078.255.078.514.001.778-.076.264-.237.507-.481.731a1.686 1.686 0 0 1-.608.377 1.104 1.104 0 0 1-.599.031 1.413 1.413 0 0 1-.506-.21 2.881 2.881 0 0 1-.513-.46l-1.548-1.697.55-.504 1.392 1.526c.12.13.245.242.376.335.132.093.263.155.395.185a.83.83 0 0 0 .404-.01.99.99 0 0 0 .408-.24c.14-.127.234-.264.285-.412a1.04 1.04 0 0 0 .054-.45 1.305 1.305 0 0 0-.134-.452 1.8 1.8 0 0 0-.285-.414l-1.352-1.48.55-.505 2.624 2.874zm-7.464 3.263a8.52 8.52 0 0 1-.443.112 1.488 1.488 0 0 1-.42.035.91.91 0 0 1-.382-.11.937.937 0 0 1-.328-.33 1.076 1.076 0 0 1-.177-.492c-.014-.165.01-.325.074-.481.062-.156.159-.305.289-.446a2.385 2.385 0 0 1 1.035-.65 1.46 1.46 0 0 1 .57-.056 1.305 1.305 0 0 1 .978.63l-.613.394c-.16-.25-.347-.38-.56-.39-.213-.008-.43.058-.65.2-.203.13-.339.27-.409.42-.07.15-.052.308.053.471.058.092.13.15.213.174.083.025.183.03.3.016.117-.014.252-.044.405-.092.153-.047.33-.095.53-.142.15-.042.292-.076.428-.102.136-.026.265-.031.388-.015a.86.86 0 0 1 .344.125c.108.067.21.175.305.324.098.154.154.31.167.468.013.158-.01.313-.07.463-.06.15-.15.294-.274.431-.122.137-.268.26-.436.367-.178.115-.36.195-.549.241-.187.046-.37.056-.546.03a1.286 1.286 0 0 1-.49-.179 1.206 1.206 0 0 1-.385-.385l.606-.39c.123.193.275.305.454.336.18.03.377-.023.593-.163a.909.909 0 0 0 .359-.393.454.454 0 0 0-.044-.45.38.38 0 0 0-.191-.164.582.582 0 0 0-.272-.018c-.106.014-.229.04-.367.078l-.485.133zm-8.184 3.91l-1.883.662-.23-.655.485-.171a2.295 2.295 0 0 1-.138-.874c.014-.28.075-.537.185-.77a1.84 1.84 0 0 1 .459-.607c.197-.172.43-.306.7-.4.253-.09.508-.136.764-.138.257-.002.498.04.726.127a1.738 1.738 0 0 1 1.024 1.072c.119.34.121.644.007.915-.114.27-.297.52-.55.748.312.012.582.09.808.234.226.145.399.387.518.727a1.486 1.486 0 0 1-.13 1.291 1.863 1.863 0 0 1-.452.51 2.224 2.224 0 0 1-.645.35 2.094 2.094 0 0 1-.75.127 1.675 1.675 0 0 1-1.228-.563 1.87 1.87 0 0 1-.368-.64l.735-.258c.108.307.28.526.516.655.235.129.534.13.895.003.291-.102.502-.261.632-.477.13-.216.147-.461.051-.736a1.241 1.241 0 0 0-.187-.353.788.788 0 0 0-.285-.231.92.92 0 0 0-.401-.082c-.155 0-.331.035-.53.105l-.122.043-.23-.656.122-.042c.42-.148.69-.356.812-.623.122-.267.128-.557.018-.87a.972.972 0 0 0-.213-.348.97.97 0 0 0-.34-.234 1.207 1.207 0 0 0-.443-.085 1.495 1.495 0 0 0-.522.092c-.35.123-.588.342-.715.656-.126.314-.122.672.013 1.073l.663-.233.23.656zM39.444 75c.336-.021.604-.135.802-.34.199-.205.292-.485.28-.84l-2.247.148c.022.343.143.605.364.789.22.183.488.264.801.244zm1.055-1.745a1.653 1.653 0 0 0-.111-.461 1.157 1.157 0 0 0-.239-.371.994.994 0 0 0-.38-.242 1.352 1.352 0 0 0-.554-.063c-.29.02-.507.095-.65.228-.144.132-.241.284-.293.453l-.752.05a1.461 1.461 0 0 1 .49-.901c.142-.124.31-.227.505-.308a2.05 2.05 0 0 1 .66-.147 2.1 2.1 0 0 1 .865.107c.252.092.464.225.635.397.172.172.305.38.401.623.096.243.153.504.17.784.02.29-.006.565-.075.822-.07.256-.18.481-.33.675-.15.193-.34.349-.57.467-.23.118-.5.187-.807.208a1.871 1.871 0 0 1-.714-.087 1.73 1.73 0 0 1-1.194-1.55 5.902 5.902 0 0 1-.01-.207c-.002-.08.002-.175.012-.284l2.941-.193zm-5.466 1.909l-.741-.072.066-.683a1.335 1.335 0 0 1-.576.521c-.247.12-.535.164-.865.132a1.682 1.682 0 0 1-.686-.2 1.105 1.105 0 0 1-.423-.425 1.418 1.418 0 0 1-.182-.518 2.892 2.892 0 0 1-.002-.69l.223-2.288.742.072-.2 2.058c-.018.177-.017.345.002.505.019.16.061.299.127.417a.831.831 0 0 0 .277.294.988.988 0 0 0 .45.143 1.01 1.01 0 0 0 .498-.064c.143-.06.266-.148.37-.261.102-.114.184-.248.245-.403.061-.155.1-.318.117-.489l.194-1.998.742.072-.378 3.877zm-8.424-2.565a1.53 1.53 0 0 0 .344.138c.419.115.768.065 1.049-.15.28-.213.482-.547.605-1l.449-1.647.719.196-1.024 3.759-.72-.196.201-.737c-.163.21-.382.357-.656.439a1.438 1.438 0 0 1-.808.015.973.973 0 0 1-.34-.154l.18-.663zm-2.016-4.48c.286.115.526.269.72.463.192.194.336.412.43.653.095.24.142.493.14.758 0 .264-.051.524-.153.78a2.14 2.14 0 0 1-.426.674c-.182.196-.39.348-.625.458-.234.11-.488.168-.762.176a2.093 2.093 0 0 1-.84-.16 2.116 2.116 0 0 1-.727-.466 1.954 1.954 0 0 1-.578-1.418c.002-.267.054-.528.155-.783.102-.255.244-.48.425-.672a1.951 1.951 0 0 1 1.393-.626c.274-.008.556.047.848.163zm-.248.622a1.293 1.293 0 0 0-1.042.023 1.31 1.31 0 0 0-.407.304 1.49 1.49 0 0 0-.285.459 1.49 1.49 0 0 0-.109.529c-.003.177.025.346.084.505a1.262 1.262 0 0 0 .739.738 1.226 1.226 0 0 0 1.032-.032c.15-.075.284-.178.404-.309.12-.13.215-.284.285-.46a1.49 1.49 0 0 0 .11-.528 1.352 1.352 0 0 0-.083-.5 1.257 1.257 0 0 0-.728-.73zm-6.374 2.562l-.635-.39 3.139-5.12.635.39-3.139 5.12zm-2.9-2.04l-.597-.445L18.06 64l.598.446-3.585 4.817zM12.624 59.14l-1.492 1.67c-.24.268-.37.518-.389.75-.02.232.07.438.27.617a.828.828 0 0 0 .74.214c.277-.052.567-.249.872-.59l1.32-1.478.555.498-1.463 1.638c-.262.294-.403.556-.42.786-.018.23.071.432.267.608.213.19.46.261.74.213.28-.048.573-.243.877-.584l1.32-1.477.556.497-2.594 2.904-.556-.497.463-.518c-.2.112-.427.16-.68.144a1.154 1.154 0 0 1-.707-.316c-.268-.24-.426-.483-.474-.73a1.145 1.145 0 0 1 .097-.725 1.29 1.29 0 0 1-.73.13 1.412 1.412 0 0 1-.388-.107 1.332 1.332 0 0 1-.368-.237 1.579 1.579 0 0 1-.405-.525 1.128 1.128 0 0 1-.102-.529c.01-.174.06-.348.15-.521.09-.174.205-.339.346-.497l1.64-1.836.555.498zm-5.11-2.088c.191.278.425.45.703.514.277.065.565.002.863-.19l-1.28-1.856c-.282.195-.445.434-.489.718-.043.284.024.556.203.814zm2.036.008c.133-.099.246-.21.338-.333a1.16 1.16 0 0 0 .196-.396.998.998 0 0 0 .011-.45 1.356 1.356 0 0 0-.23-.509c-.166-.24-.342-.387-.529-.442a1.018 1.018 0 0 0-.539-.018l-.428-.62a1.455 1.455 0 0 1 1.024-.042c.178.057.352.149.522.274.17.126.325.29.464.492.185.268.303.534.353.798.05.265.046.515-.014.75-.06.236-.168.458-.327.665-.16.208-.354.391-.584.55-.24.166-.488.286-.743.358a1.874 1.874 0 0 1-.748.064 1.69 1.69 0 0 1-.693-.25 2.039 2.039 0 0 1-.591-.586 1.877 1.877 0 0 1-.293-.658 1.738 1.738 0 0 1 .226-1.318c.124-.198.287-.366.49-.506a5.89 5.89 0 0 1 .171-.114c.067-.043.15-.088.25-.136l1.674 2.427zm-4.44-3.699l-.32-.673.618-.296a1.33 1.33 0 0 1-.743-.225c-.23-.15-.416-.375-.558-.674a1.689 1.689 0 0 1-.182-.692 1.11 1.11 0 0 1 .145-.583c.088-.162.204-.303.35-.423.145-.12.341-.24.589-.358l2.073-.99.32.674-1.864.89c-.16.077-.303.164-.43.263a1.12 1.12 0 0 0-.292.325.834.834 0 0 0-.11.389.992.992 0 0 0 .11.46c.082.171.185.302.311.394.126.092.264.153.414.182.15.03.308.03.472.003.164-.027.323-.078.478-.152l1.81-.865.32.674-3.511 1.677zm1.024-9.154a5.21 5.21 0 0 1 .23.63c.032.116.057.246.073.39a.926.926 0 0 1-.053.43.993.993 0 0 1-.308.407c-.154.13-.385.237-.693.324l-1.88.53.194.693-.602.17-.195-.694-1.262.356-.2-.719 1.261-.355-.273-.975.602-.17.273.975 1.724-.485c.182-.052.322-.107.42-.168a.606.606 0 0 0 .212-.198.392.392 0 0 0 .057-.225 1.212 1.212 0 0 0-.046-.259 4.784 4.784 0 0 0-.08-.258 1.786 1.786 0 0 0-.089-.22l.635-.179zm-2.442-5.25a1.069 1.069 0 0 1-1.398-1.11 1.064 1.064 0 0 1 .743-.93 1.073 1.073 0 0 1 .655 2.04z" fill="#222" fill-rule="evenodd"/></svg>