<svg viewBox="0 0 24 22" width="24" height="22" xmlns="http://www.w3.org/2000/svg"><g fill="#222" fill-rule="evenodd"><path d="M11.292 5.458a.997.997 0 0 0-.964.992c.01.542.447.966.99.96.543-.007.955-.436.95-.99a.96.96 0 0 0-.976-.962M6.16 6.465c.02-.522-.423-.991-.948-1.007a.966.966 0 0 0-.996.945.957.957 0 0 0 .937 1.002.981.981 0 0 0 1.007-.94m9.836.887c-2.137.114-3.995.776-5.504 2.27-1.525 1.51-2.22 3.359-2.03 5.652-.836-.106-1.597-.222-2.362-.288-.264-.022-.578.01-.802.139-.743.428-1.455.911-2.3 1.45.155-.715.256-1.342.433-1.944.13-.443.07-.69-.33-.978C.537 11.804-.544 9.037.265 6.19c.749-2.636 2.588-4.234 5.086-5.067 3.41-1.137 7.243.022 9.317 2.786a6.59 6.59 0 0 1 1.33 3.444"/><path d="M18.935 12.252a.819.819 0 0 0-.806.79.807.807 0 0 0 .795.854.798.798 0 0 0 .806-.784c.017-.469-.341-.857-.795-.86m-5.068 1.65a.82.82 0 0 0 .819-.79.826.826 0 0 0-.813-.862.834.834 0 0 0-.822.856c.015.44.38.795.816.796m7.861 7.736c-.69-.313-1.324-.782-1.998-.854-.672-.07-1.378.323-2.081.396-2.141.223-4.06-.384-5.641-1.87-3.008-2.828-2.579-7.164.902-9.482 3.093-2.06 7.63-1.373 9.81 1.485 1.903 2.494 1.68 5.804-.644 7.9-.672.606-.914 1.104-.482 1.904.08.147.088.334.134.52"/></g></svg>
