<svg width="25" height="21" xmlns="http://www.w3.org/2000/svg"><path d="M10.968 15.66c-.908.982-2.51 1.307-3.739.752-1.577-.708-1.857-2.52-.566-3.661.652-.575 1.422-.837 2.3-.886.375.087.763.136 1.123.264 1.569.552 2.002 2.313.882 3.53m10.019-8.87c.16.58-.053 1.004-.545 1.138-.501.137-.917-.105-1.076-.686-.34-1.244-1.148-1.999-2.392-2.322-.487-.125-.743-.433-.684-.915.056-.447.345-.71.98-.717.193.058.54.13.854.26 1.486.62 2.448 1.7 2.863 3.241m3.409.058c.023.657-.257 1.043-.772 1.081-.537.038-.891-.349-.92-1.009-.148-2.92-2.347-5.084-5.332-5.25-.713-.038-1.076-.346-1.046-.881.03-.534.44-.82 1.123-.784 3.84.2 6.808 3.13 6.947 6.843m-8.206 8.826c-.696.987-1.649 1.661-2.751 2.132-2.49 1.064-5.028 1.227-7.586.297-.576-.21-1.124-.532-1.617-.892-1.834-1.346-2.034-3.526-.492-5.193 1.386-1.502 3.193-2.18 5.178-2.47.48-.07.967-.082 1.386-.114 2.11.064 4.048.443 5.551 1.953 1.236 1.244 1.34 2.853.33 4.287m2.348-5.22c-.926-.386-.926-.386-.693-1.34.38-1.554-.336-2.563-1.96-2.557-.876.003-1.752.253-2.619.436-.442.093-.864.285-1.415.474.088-.74.206-1.322.212-1.904.009-1.11-.704-1.824-1.828-1.757-.681.037-1.407.177-2.02.462C4.84 5.829 2.33 8.282.843 11.659c-.336.761-.47 1.673-.443 2.51.062 1.958 1.26 3.299 2.851 4.278 3.391 2.086 7.06 2.409 10.863 1.406 2.344-.618 4.364-1.79 5.824-3.76 1.698-2.284 1.117-4.591-1.401-5.641" fill="#231F20" fill-rule="evenodd"/></svg>