<svg width="20" height="17" xmlns="http://www.w3.org/2000/svg"><path d="M17.953 4.685c.008.176.012.351.012.53 0 5.423-4.127 11.675-11.675 11.675-2.319 0-4.474-.679-6.29-1.844.323.038.647.057.979.057a8.22 8.22 0 0 0 5.095-1.755 4.107 4.107 0 0 1-3.831-2.85 4.116 4.116 0 0 0 1.85-.07 4.109 4.109 0 0 1-3.29-4.024v-.051a4.076 4.076 0 0 0 1.86.512A4.1 4.1 0 0 1 .837 3.45c0-.752.202-1.456.554-2.064A11.644 11.644 0 0 0 9.85 5.674 4.101 4.101 0 0 1 13.848.638c1.178 0 2.246.497 2.993 1.293a8.222 8.222 0 0 0 2.607-.995 4.108 4.108 0 0 1-1.804 2.269A8.14 8.14 0 0 0 20 2.561a8.331 8.331 0 0 1-2.047 2.124" fill="#222" fill-rule="evenodd"/></svg>