<svg viewBox="0 0 18 20" width="18" height="20" xmlns="http://www.w3.org/2000/svg"><path d="M15.038 14.116c-.637 0-1.215.235-1.735.588l-7.577-4.411c0-.118.057-.235.057-.295 0-.058 0-.235-.057-.294l7.577-4.41a2.941 2.941 0 0 0 1.735.588c1.619 0 2.892-1.294 2.892-2.941C17.93 1.295 16.658 0 15.038 0c-1.62 0-2.892 1.293-2.892 2.94 0 .119 0 .177.057.295L4.627 7.647a2.811 2.811 0 0 0-1.735-.587C1.273 7.06 0 8.353 0 10s1.272 2.942 2.892 2.942c.637 0 1.215-.235 1.735-.588l7.577 4.41c0 .119-.057.177-.057.295 0 1.646 1.272 2.941 2.892 2.941 1.619 0 2.892-1.293 2.892-2.94-.001-1.65-1.274-2.944-2.893-2.944z" fill="#222" fill-rule="evenodd"/></svg>
