<svg width="59" height="60" viewBox="0 0 59 60" xmlns="http://www.w3.org/2000/svg"><g fill="none" fill-rule="evenodd"><path d="M58 30c0 10.93-6.51 20.396-16 25" stroke="#D9542B" stroke-width="2"/><path d="M42.098 54.99c1.004-.326 1.763-2.858 1.575-3.976a7.416 7.416 0 0 0-.685-2.106l-6.769 7.98 10.169 2.482c-.16-.906-.391-1.62-.695-2.138-.456-.779-2.59-2.568-3.595-2.242zM18.043 4.33c-.915.529-1.13 3.163-.714 4.218a7.416 7.416 0 0 0 1.107 1.917l4.962-9.213L12.936.94c.345.853.72 1.502 1.125 1.947.607.667 3.067 1.973 3.982 1.445z" fill="#D9542B"/><path d="M30 2c15.463 0 28 12.536 28 28M29 58C13.537 58 1 45.343 1 29.729 1 18.3 7.716 8.457 17.38 4" stroke="#D9542B" stroke-width="2"/></g></svg>