<?xml version="1.0" encoding="UTF-8"?>
<svg xmlns="http://www.w3.org/2000/svg" xmlns:xlink="http://www.w3.org/1999/xlink" width="106px" height="36px" version="1.1" viewBox="0 0 106 36">
<!--Generator: Sketch 47.1 (45422) - http://www.bohemiancoding.com/sketch-->
    <title>
        Logo
    </title>
    <desc>
        Created with Sketch.
    </desc>
    <defs/>
    <g id="Page-1" fill="none" fill-rule="evenodd" stroke="none" stroke-width="1">
        <g id="Artboard">
            <g id="Logo">
                <g id="Group" fill="#8D8C8A" transform="translate(5.300000, 29.647059)">
                    <path id="Fill-1" d="M3.78717544,3.89905238 C3.78717544,2.91256245 3.07446491,2.55740693 2.1162807,2.23623529 C1.42588596,2.00696374 0.857763158,1.82316358 0.857763158,1.21528284 C0.857763158,0.814177276 1.1585614,0.47003062 1.82664035,0.47003062 C2.10512281,0.47003062 2.5175,0.538955681 2.80714035,0.653352135 L3.12978947,1.75471716 L3.55332456,1.75471716 L3.55332456,0 L3.10747368,0.125883965 C2.76250877,0.0574375504 2.43939474,0.0114875101 1.94937719,0.0114875101 C0.656921053,0.0229750201 0.0446315789,0.745252216 0.0446315789,1.51347945 C0.0446315789,2.45401934 0.735026316,2.798166 1.61510526,3.09636261 C2.33897368,3.33712168 2.94057018,3.52044319 2.94057018,4.18576148 C2.94057018,4.63281708 2.60629825,5.0458888 1.87127193,5.0458888 C1.55931579,5.0458888 1.12508772,4.97696374 0.835447368,4.85107977 L0.445385965,3.6468058 L0,3.6468058 L0.0892631579,5.26367284 C0.568122807,5.40152297 1.04698246,5.50443191 1.71552632,5.50443191 C3.04145614,5.50443191 3.78717544,4.73620467 3.78717544,3.89905238 L3.78717544,3.89905238 Z M10.5953509,3.6468058 L10.0723246,3.6468058 L9.68179825,4.85107977 C9.41447368,4.99993876 9.06904386,5.06886382 8.74639474,5.06886382 C7.53204386,5.06886382 6.83049123,4.16278646 6.83049123,2.6947784 C6.83049123,1.35313296 7.55435965,0.45854311 8.67944737,0.45854311 C9.14714912,0.45854311 9.47026316,0.561930701 9.78268421,0.733764706 L10.0723246,1.90357615 L10.5618772,1.90357615 L10.5618772,0.0344625302 L9.84916667,0.194809025 C9.62647368,0.125883965 9.16946491,0.0114875101 8.65759649,0.0114875101 C7.00855263,0.0114875101 5.76072807,1.08939887 5.76072807,2.82114102 C5.76072807,4.56437067 6.99739474,5.50443191 8.63481579,5.50443191 C9.14714912,5.50443191 9.62647368,5.40152297 9.93796491,5.27516035 L10.4279825,5.37854795 L10.5953509,3.6468058 Z M18.2245614,5.37854795 L18.2022456,4.97696374 L17.7898684,4.88506366 C17.6564386,4.85107977 17.6006491,4.78215471 17.6006491,4.69025463 L17.6006491,0.814177276 C17.6006491,0.722277196 17.6564386,0.653352135 17.7898684,0.619368251 L18.2022456,0.527468171 L18.2245614,0.125883965 L16.0190175,0.125883965 L16.0520263,0.527468171 L16.4532456,0.619368251 C16.5866754,0.653352135 16.6424649,0.699302176 16.6424649,0.814177276 L16.6424649,2.48848187 L14.325807,2.48848187 L14.325807,0.814177276 C14.325807,0.722277196 14.3704386,0.653352135 14.5038684,0.619368251 L14.9162456,0.527468171 L14.9380965,0.125883965 L12.7446404,0.125883965 L12.7660263,0.527468171 L13.1672456,0.619368251 C13.3118333,0.653352135 13.3564649,0.722277196 13.3564649,0.814177276 L13.3564649,4.69025463 C13.3564649,4.78215471 13.3118333,4.85107977 13.1672456,4.88506366 L12.7660263,4.97696374 L12.7446404,5.37854795 L14.9380965,5.37854795 L14.9162456,4.97696374 L14.5038684,4.88506366 C14.3704386,4.85107977 14.325807,4.78215471 14.325807,4.69025463 L14.325807,2.89006608 L16.6424649,2.89006608 L16.6424649,4.69025463 C16.6424649,4.80512973 16.5866754,4.85107977 16.4532456,4.88506366 L16.0520263,4.97696374 L16.0190175,5.37854795 L18.2245614,5.37854795 Z M25.5297281,2.72924093 C25.5297281,1.11237389 24.4153333,0.0114875101 22.8225439,0.0114875101 C21.3185526,0.0114875101 20.0823509,1.22677035 20.0823509,2.80965351 C20.0823509,4.41503304 21.1962807,5.51591942 22.7890702,5.51591942 C24.2930614,5.51591942 25.5297281,4.31212409 25.5297281,2.72924093 L25.5297281,2.72924093 Z M24.4711228,2.82114102 C24.4711228,4.34610798 23.7249386,5.05737631 22.8225439,5.05737631 C21.9201491,5.05737631 21.152114,4.25468654 21.152114,2.70626591 C21.152114,1.19278646 21.8866754,0.47003062 22.7890702,0.47003062 C23.7026228,0.47003062 24.4711228,1.27272039 24.4711228,2.82114102 L24.4711228,2.82114102 Z M32.9278772,2.72924093 C32.9278772,1.11237389 31.8139474,0.0114875101 30.220693,0.0114875101 C28.7171667,0.0114875101 27.4805,1.22677035 27.4805,2.80965351 C27.4805,4.41503304 28.5944298,5.51591942 30.1876842,5.51591942 C31.6916754,5.51591942 32.9278772,4.31212409 32.9278772,2.72924093 L32.9278772,2.72924093 Z M31.8692719,2.82114102 C31.8692719,4.34610798 31.1230877,5.05737631 30.220693,5.05737631 C29.3187632,5.05737631 28.5502632,4.25468654 28.5502632,2.70626591 C28.5502632,1.19278646 29.2852895,0.47003062 30.1876842,0.47003062 C31.1007719,0.47003062 31.8692719,1.27272039 31.8692719,2.82114102 L31.8692719,2.82114102 Z M38.9350088,3.58936825 L38.4110526,3.58936825 L38.1995175,4.369083 C38.0214561,4.87357615 37.8987193,4.9310137 36.5397807,4.9310137 L36.3728772,4.9310137 L36.3728772,0.814177276 C36.3728772,0.722277196 36.4179737,0.641864625 36.5509386,0.619368251 L37.0079474,0.527468171 L37.0297982,0.125883965 L34.7912456,0.125883965 L34.8135614,0.527468171 L35.2143158,0.619368251 C35.3593684,0.653352135 35.4035351,0.722277196 35.4035351,0.814177276 L35.4035351,4.69025463 C35.4035351,4.78215471 35.3593684,4.85107977 35.2143158,4.88506366 L34.8135614,4.97696374 L34.7912456,5.37854795 L38.7564825,5.37854795 L38.9350088,3.58936825 Z M48.9064474,4.87118292 L48.7911491,4.68116035 C48.6219211,4.77593231 48.3982982,4.87118292 48.1751404,4.87118292 C47.6748947,4.87118292 47.4898596,4.43513618 47.2127719,3.87272683 L47.874807,3.06429331 C48.0519386,2.83454311 48.3057807,2.68376954 48.5061579,2.62824658 L48.7293158,2.56506527 L48.76,2.26351813 L47.0435439,2.26351813 L47.0663246,2.56506527 L47.2667018,2.62010959 C47.4512719,2.66797421 47.5284474,2.76322482 47.3899035,3.00063336 C47.3824649,3.09588396 47.0356404,3.55538437 47.0356404,3.55538437 C46.751114,3.10402095 46.3508246,2.74695085 45.8654561,2.50140532 C46.4507807,2.3190411 46.8738509,1.90692667 46.8738509,1.33638034 C46.8738509,0.741901692 46.3122368,0.313991942 45.5344386,0.313991942 C44.6185614,0.313991942 43.9179386,0.884538276 43.9179386,1.61399517 C43.9179386,2.13667687 44.2029298,2.54113296 44.6799298,2.79481547 C44.0871667,3.00877035 43.5715789,3.5319307 43.5715789,4.22118131 C43.5715789,4.9185689 44.0950702,5.5053892 44.9416754,5.5053892 C45.6422982,5.5053892 46.1657895,5.10093312 46.5507368,4.62563739 C46.8124825,5.19618372 47.1588421,5.5053892 47.6976754,5.5053892 C48.2365088,5.5053892 48.5907719,5.19618372 48.9064474,4.87118292 L48.9064474,4.87118292 Z M46.0272456,1.42349396 C46.0272456,1.80401773 45.9040439,2.14481386 45.5962719,2.36690572 C44.9956053,2.09742788 44.7571053,1.75663175 44.7571053,1.32824335 C44.7571053,0.955856567 45.0035088,0.66292506 45.4037982,0.66292506 C45.8115263,0.66292506 46.0272456,1.03531185 46.0272456,1.42349396 L46.0272456,1.42349396 Z M46.4200965,4.30829492 C46.1657895,4.64143272 45.7655,4.82379694 45.4270439,4.82379694 C44.8649649,4.82379694 44.4414298,4.40354553 44.4493333,3.85693151 C44.4493333,3.48406608 44.641807,3.17533924 44.9342368,2.94511039 C45.5883684,3.23038356 46.0965175,3.57117969 46.4200965,4.30829492 L46.4200965,4.30829492 Z M56.853193,3.89905238 C56.853193,2.91256245 56.1400175,2.55740693 55.1822982,2.23623529 C54.4914386,2.00696374 53.9233158,1.82316358 53.9233158,1.21528284 C53.9233158,0.814177276 54.224114,0.47003062 54.8926579,0.47003062 C55.1711404,0.47003062 55.5830526,0.538955681 55.872693,0.653352135 L56.195807,1.75471716 L56.6188772,1.75471716 L56.6188772,0 L56.1734912,0.125883965 C55.8280614,0.0574375504 55.5054123,0.0114875101 55.0149298,0.0114875101 C53.7229386,0.0229750201 53.1101842,0.745252216 53.1101842,1.51347945 C53.1101842,2.45401934 53.8010439,2.798166 54.6806579,3.09636261 C55.4049912,3.33712168 56.0065877,3.52044319 56.0065877,4.18576148 C56.0065877,4.63281708 55.6727807,5.0458888 54.9372895,5.0458888 C54.6257982,5.0458888 54.1906404,4.97696374 53.901,4.85107977 L53.5114035,3.6468058 L53.0655526,3.6468058 L53.1548158,5.26367284 C53.6336754,5.40152297 54.113,5.50443191 54.7810789,5.50443191 C56.1065439,5.50443191 56.853193,4.73620467 56.853193,3.89905238 L56.853193,3.89905238 Z M63.5051579,1.92655117 L63.5051579,0.125883965 L58.782114,0.125883965 L58.6375263,1.92655117 L59.1498596,1.92655117 L59.3613947,1.13534891 C59.4952895,0.630855761 59.7179825,0.573418211 60.5534298,0.573418211 L60.6203772,0.573418211 L60.6203772,4.69025463 C60.6203772,4.78215471 60.5757456,4.86256728 60.430693,4.88506366 L59.9072018,4.97696374 L59.884886,5.37854795 L62.3359035,5.37854795 L62.3131228,4.97696374 L61.7784737,4.88506366 C61.6450439,4.86256728 61.5892544,4.78215471 61.5892544,4.69025463 L61.5892544,0.573418211 L61.6785175,0.573418211 C62.5358158,0.573418211 62.7143421,0.676327156 62.836614,1.19278646 L63.0151404,1.92655117 L63.5051579,1.92655117 Z M70.8145088,0.125883965 L68.9097632,0.125883965 L68.9320789,0.527468171 L69.3439912,0.607880741 C69.6113158,0.664839645 69.6782632,0.756739726 69.6782632,2.28218533 L69.6782632,3.44050927 C69.6782632,4.41503304 69.2105614,4.9310137 68.3527982,4.9310137 C67.5508246,4.9310137 66.9938596,4.47247059 66.9938596,3.33712168 L66.9938596,0.814177276 C66.9938596,0.722277196 67.0496491,0.653352135 67.1830789,0.619368251 L67.5954561,0.527468171 L67.6177719,0.125883965 L65.4122281,0.125883965 L65.4457018,0.527468171 L65.8464561,0.619368251 C65.9915088,0.653352135 66.0361404,0.722277196 66.0361404,0.814177276 L66.0361404,3.6468058 C66.0361404,4.90803868 66.8269561,5.53889444 68.0631579,5.53889444 C69.2886667,5.53889444 70.0571667,4.79364222 70.0571667,3.63531829 L70.0571667,2.28218533 C70.0571667,0.756739726 70.1459649,0.664839645 70.4025965,0.607880741 L70.792193,0.527468171 L70.8145088,0.125883965 Z M77.8230614,2.66031587 C77.8230614,1.18129895 76.6421842,0.0799339243 74.7713772,0.102908944 L72.7327368,0.125883965 L72.7550526,0.527468171 L73.155807,0.619368251 C73.3013246,0.653352135 73.3450263,0.722277196 73.3450263,0.814177276 L73.3450263,4.69025463 C73.3450263,4.78215471 73.3013246,4.85107977 73.155807,4.88506366 L72.7550526,4.97696374 L72.7327368,5.37854795 L74.7597544,5.37854795 C76.7649211,5.37854795 77.8230614,4.12832393 77.8230614,2.66031587 L77.8230614,2.66031587 Z M76.7760789,2.86709106 C76.7760789,4.0938614 76.0963772,4.9310137 74.8936491,4.9310137 L74.3143684,4.80512973 L74.3143684,0.561930701 L74.5705351,0.561930701 C76.0298947,0.561930701 76.7760789,1.44503304 76.7760789,2.86709106 L76.7760789,2.86709106 Z M81.9891404,5.37854795 L81.9668246,4.97696374 L81.4879649,4.88506366 C81.3429123,4.86256728 81.2982807,4.78215471 81.2982807,4.69025463 L81.2982807,0.814177276 C81.2982807,0.722277196 81.3429123,0.641864625 81.4879649,0.619368251 L81.9668246,0.527468171 L81.9891404,0.125883965 L79.627386,0.125883965 L79.6497018,0.527468171 L80.1401842,0.619368251 C80.2740789,0.641864625 80.3294035,0.722277196 80.3294035,0.814177276 L80.3294035,4.69025463 C80.3294035,4.78215471 80.2740789,4.86256728 80.1401842,4.88506366 L79.6497018,4.97696374 L79.627386,5.37854795 L81.9891404,5.37854795 Z M89.262693,2.72924093 C89.262693,1.11237389 88.1487632,0.0114875101 86.5559737,0.0114875101 C85.0524474,0.0114875101 83.8157807,1.22677035 83.8157807,2.80965351 C83.8157807,4.41503304 84.9297105,5.51591942 86.5225,5.51591942 C88.0264912,5.51591942 89.262693,4.31212409 89.262693,2.72924093 L89.262693,2.72924093 Z M88.2045526,2.82114102 C88.2045526,4.34610798 87.4583684,5.05737631 86.5559737,5.05737631 C85.6535789,5.05737631 84.8850789,4.25468654 84.8850789,2.70626591 C84.8850789,1.19278646 85.6205702,0.47003062 86.5225,0.47003062 C87.4360526,0.47003062 88.2045526,1.27272039 88.2045526,2.82114102 L88.2045526,2.82114102 Z M95.066193,3.89905238 C95.066193,2.91256245 94.3530175,2.55740693 93.3952982,2.23623529 C92.7044386,2.00696374 92.1363158,1.82316358 92.1363158,1.21528284 C92.1363158,0.814177276 92.437114,0.47003062 93.1056579,0.47003062 C93.3841404,0.47003062 93.7960526,0.538955681 94.0861579,0.653352135 L94.408807,1.75471716 L94.8323421,1.75471716 L94.8323421,0 L94.3864912,0.125883965 C94.0410614,0.0574375504 93.7184123,0.0114875101 93.2279298,0.0114875101 C91.9359386,0.0229750201 91.3231842,0.745252216 91.3231842,1.51347945 C91.3231842,2.45401934 92.0140439,2.798166 92.8941228,3.09636261 C93.6179912,3.33712168 94.2195877,3.52044319 94.2195877,4.18576148 C94.2195877,4.63281708 93.8853158,5.0458888 93.1502895,5.0458888 C92.8383333,5.0458888 92.4036404,4.97696374 92.114,4.85107977 L91.7244035,3.6468058 L91.2790175,3.6468058 L91.3678158,5.26367284 C91.8466754,5.40152297 92.326,5.50443191 92.9940789,5.50443191 C94.3195439,5.50443191 95.066193,4.73620467 95.066193,3.89905238 L95.066193,3.89905238 Z"/>
                </g>
                <g id="Group-2" fill="#222222">
                    <path id="Fill-3" d="M10.594886,23.8588375 L11.6990526,23.8588375 L17.5313772,8.26442222 L17.6350526,8.26442222 L23.1219474,23.8588375 L24.226114,23.8588375 L29.6790702,8.29959402 C31.577307,2.93684523 31.921807,2.40784236 33.8205088,2.09034558 L32.7981667,1.98435489 L32.9013772,1.42018022 L26.6766667,1.42018022 L26.7798772,1.98435489 L27.6432193,2.12551738 C30.5763509,2.47818596 30.5414825,3.25481731 28.8854649,8.19407862 L25.2275351,18.8135855 L25.1238596,18.8135855 L20.4301053,5.01863551 C19.6016316,2.61934845 19.6360351,2.19633627 21.3278509,2.09034558 L22.535693,1.98435489 L22.6384386,1.42018022 L12.5614649,1.42018022 L12.6651404,1.98435489 L13.8390439,2.12551738 C15.2537719,2.26667987 15.5638684,2.83132983 16.5652895,5.44212298 L17.1520088,7.20594118 L12.7692807,18.9195762 L12.6651404,18.9195762 L7.83423684,4.94829191 C7.04016667,2.61934845 7.1094386,2.19633627 8.76545614,2.09034558 L10.0077018,1.98435489 L10.1118421,1.42018022 L0,1.42018022 L0.103675439,1.98435489 L1.24271053,2.12551738 C2.72624561,2.26667987 2.968,2.72533914 3.96895614,5.47729478 L10.594886,23.8588375 Z M32.9209035,23.4705218 L40.7551404,23.4705218 L40.651,22.9063472 L39.9954737,22.8711754 C38.615614,22.7651847 38.4426667,22.659194 38.4426667,22.3416972 L38.4426667,11.4046935 C39.2362719,10.7340529 40.375307,10.1342311 41.7905,10.1342311 C43.7231404,10.1342311 44.7929035,11.0163779 44.7929035,13.5211803 L44.7929035,22.2713536 C44.7929035,22.5888504 44.6204211,22.8003565 43.4809211,22.8711754 L42.7914561,22.9063472 L42.6873158,23.4705218 L50.4871491,23.4705218 L50.3830088,22.9063472 L49.8660263,22.8711754 C48.2783509,22.7300129 48.2090789,22.5532033 48.2090789,22.3065254 L48.2090789,12.56869 C48.2090789,11.0163779 47.864114,9.67557184 47.0705088,8.79390039 C46.3452456,8.08808793 45.3791579,7.70024755 44.3098596,7.70024755 C42.0317895,7.70024755 40.0647456,9.32290326 38.5119386,10.6285375 L38.4426667,10.5928904 L38.4426667,0.31939796 L32.7832895,1.45202495 L32.7479561,1.97865135 L33.8874561,2.26335281 C34.7842719,2.51050599 34.9916228,2.79235568 34.9916228,3.85083672 L34.9916228,22.2713536 C34.9916228,22.6943658 34.6117895,22.8003565 33.6461667,22.8711754 L33.024114,22.9063472 L32.9209035,23.4705218 Z M55.2111228,5.05380731 C56.6946579,5.05380731 57.4199211,3.81899198 57.4199211,2.79615804 C57.4199211,1.737677 56.6946579,0.538033469 55.2111228,0.538033469 C53.7619912,0.538033469 53.037193,1.737677 53.037193,2.79615804 C53.037193,3.81899198 53.7619912,5.05380731 55.2111228,5.05380731 L55.2111228,5.05380731 Z M51.6564035,23.4705218 L59.4906404,23.4705218 L59.3865,22.9063472 L58.835114,22.8711754 C57.4199211,22.7651847 57.2125702,22.659194 57.2125702,22.3416972 L57.2125702,7.73541935 L51.6224649,9.28773146 L51.5875965,9.71121893 L52.3467982,9.88755322 C53.5541754,10.1698782 53.7963947,10.5225468 53.7963947,12.6746807 L53.7963947,22.2713536 C53.7963947,22.6943658 53.4165614,22.8003565 52.4160702,22.8711754 L51.7600789,22.9063472 L51.6564035,23.4705218 Z M66.2197807,23.9291811 C68.0826842,23.9291811 69.8428421,22.7300129 71.2580351,21.2128726 L71.0850877,20.8597287 C70.3263509,21.4595505 69.3597982,21.8830379 68.2207632,21.8830379 C66.4615351,21.8830379 65.5986579,21.0008912 65.6330614,19.0607387 L65.8394825,9.88755322 L70.6717807,9.88755322 L71.1548246,8.22925042 L65.8394825,8.22925042 L65.8743509,4.84230122 L65.3564386,4.73631053 L62.1820175,7.34710367 L60.0076228,9.04057828 L59.6965965,9.92272502 L62.4581754,10.0287157 L62.285693,19.5897416 C62.2503596,22.5888504 63.6655526,23.9291811 66.2197807,23.9291811 L66.2197807,23.9291811 Z M77.9532368,23.9291811 C79.8166053,23.9291811 81.5767632,22.7300129 82.9919561,21.2128726 L82.8190088,20.8597287 C82.059807,21.4595505 81.0937193,21.8830379 79.9542193,21.8830379 C78.1945263,21.8830379 77.332114,21.0008912 77.3660526,19.0607387 L77.5734035,9.88755322 L82.4052368,9.88755322 L82.8878158,8.22925042 L77.5734035,8.22925042 L77.6082719,4.84230122 L77.0898947,4.73631053 L73.9150088,7.34710367 L71.7410789,9.04057828 L71.4305175,9.92272502 L74.1916316,10.0287157 L74.0191491,19.5897416 C73.9847456,22.5888504 75.3994737,23.9291811 77.9532368,23.9291811 L77.9532368,23.9291811 Z M83.4401316,23.4705218 L91.1702281,23.4705218 L91.0670175,22.9063472 L90.4798333,22.8711754 C89.1687807,22.7651847 88.9270263,22.659194 88.9270263,22.3416972 L88.9270263,0 L83.3020526,1.5527874 L83.2327807,1.94062778 L84.3713509,2.36411526 C85.2686316,2.61079315 85.5108509,2.89311813 85.5108509,4.58659273 L85.5108509,22.2713536 C85.5108509,22.6943658 85.2002895,22.8003565 84.1988684,22.8711754 L83.5433421,22.9063472 L83.4401316,23.4705218 Z M99.3396667,24 C102.376474,24 104.550868,22.2357065 106,19.2019012 L105.620632,18.9899198 C104.447193,20.8953758 102.963193,21.5655411 101.133763,21.5655411 C98.0974211,21.5655411 95.9225614,18.9195762 95.8886228,14.967977 C95.8886228,14.6153084 95.9225614,13.909496 95.9922982,13.5919992 C96.3372632,13.5919992 105.758246,13.6979899 105.758246,13.6979899 C105.827518,13.344846 105.861921,13.0273492 105.861921,12.7098525 C105.861921,9.85238142 103.756798,7.66460046 100.167675,7.66460046 C95.612,7.66460046 92.2650965,11.4046935 92.2650965,16.2379642 C92.2650965,20.6482226 95.2675,24 99.3396667,24 L99.3396667,24 Z M96.0267018,12.9921774 C96.4056053,10.3462125 97.9593421,8.37041291 99.7185702,8.37041291 C101.616807,8.37041291 102.376474,10.5577186 102.34207,12.9570056 C102.376474,12.9570056 96.0267018,12.9921774 96.0267018,12.9921774 L96.0267018,12.9921774 Z"/>
                </g>
            </g>
        </g>
    </g>
</svg>