<svg viewBox="0 0 106 36" width="106" height="36" xmlns="http://www.w3.org/2000/svg"><g fill="none" fill-rule="evenodd"><path d="M9.087 33.546c0-.986-.713-1.342-1.67-1.663-.691-.229-1.26-.413-1.26-1.02 0-.402.302-.746.97-.746.278 0 .69.069.98.183l.323 1.102h.423v-1.755l-.446.126a5.453 5.453 0 0 0-1.158-.114c-1.292.011-1.904.733-1.904 1.502 0 .94.69 1.284 1.57 1.582.724.241 1.326.425 1.326 1.09 0 .447-.335.86-1.07.86-.312 0-.746-.069-1.036-.195l-.39-1.204H5.3l.09 1.617c.478.138.957.24 1.626.24 1.325 0 2.071-.768 2.071-1.605zm6.808-.252h-.523l-.39 1.204c-.268.149-.613.218-.936.218-1.214 0-1.916-.906-1.916-2.374 0-1.342.724-2.236 1.85-2.236.467 0 .79.103 1.103.275l.29 1.17h.489v-1.87l-.713.16a4.218 4.218 0 0 0-1.191-.182c-1.65 0-2.897 1.077-2.897 2.81 0 1.742 1.236 2.682 2.874 2.682.512 0 .991-.102 1.303-.229l.49.104.167-1.732zm7.63 1.732l-.023-.402-.412-.092c-.134-.034-.19-.103-.19-.195v-3.876c0-.092.056-.16.19-.195l.412-.091.023-.402h-2.206l.033.402.401.091c.134.034.19.08.19.195v1.675h-2.317V30.46c0-.092.044-.16.178-.195l.412-.091.022-.402h-2.193l.021.402.401.091c.145.034.19.103.19.195v3.876c0 .092-.045.161-.19.195l-.401.092-.021.402h2.193l-.022-.402-.412-.092c-.134-.034-.178-.103-.178-.195v-1.8h2.316v1.8c0 .115-.055.161-.189.195l-.401.092-.033.402h2.206zm7.305-2.65c0-1.617-1.115-2.717-2.707-2.717-1.504 0-2.74 1.215-2.74 2.798 0 1.605 1.113 2.706 2.706 2.706 1.504 0 2.74-1.204 2.74-2.787zm-1.059.092c0 1.525-.746 2.236-1.648 2.236-.903 0-1.67-.802-1.67-2.35 0-1.514.734-2.237 1.636-2.237.914 0 1.682.803 1.682 2.351zm8.457-.092c0-1.617-1.114-2.717-2.707-2.717-1.504 0-2.74 1.215-2.74 2.798 0 1.605 1.113 2.706 2.707 2.706 1.504 0 2.74-1.204 2.74-2.787zm-1.059.092c0 1.525-.746 2.236-1.648 2.236-.902 0-1.67-.802-1.67-2.35 0-1.514.734-2.237 1.637-2.237.913 0 1.681.803 1.681 2.351zm7.066.768h-.524l-.211.78c-.179.505-.301.562-1.66.562h-.167v-4.117c0-.092.045-.172.178-.195l.457-.091.022-.402H40.09l.023.402.4.091c.145.034.19.103.19.195v3.876c0 .092-.045.161-.19.195l-.4.092-.023.402h3.965l.179-1.79zm9.971 1.282l-.115-.19c-.17.095-.393.19-.616.19-.5 0-.685-.436-.962-.998l.662-.809c.177-.23.43-.38.631-.436l.223-.063.031-.301h-1.716l.022.301.2.055c.185.048.262.143.124.38-.008.096-.354.555-.354.555a2.931 2.931 0 0 0-1.17-1.054c.585-.182 1.008-.594 1.008-1.165 0-.594-.562-1.022-1.34-1.022-.915 0-1.616.57-1.616 1.3 0 .523.285.927.762 1.18-.593.215-1.108.738-1.108 1.427 0 .698.523 1.284 1.37 1.284.7 0 1.224-.404 1.609-.88.261.571.608.88 1.147.88s.893-.309 1.208-.634zm-2.879-3.447c0 .38-.123.72-.43.943-.601-.27-.84-.61-.84-1.039 0-.372.247-.665.647-.665.408 0 .623.372.623.76zm.393 2.884c-.254.333-.654.516-.993.516-.562 0-.986-.42-.978-.967 0-.373.193-.682.485-.912.654.285 1.163.626 1.486 1.363zm10.433-.409c0-.986-.713-1.342-1.67-1.663-.692-.229-1.26-.413-1.26-1.02 0-.402.301-.746.97-.746.278 0 .69.069.98.183l.323 1.102h.423v-1.755l-.446.126a5.457 5.457 0 0 0-1.158-.114c-1.292.011-1.905.733-1.905 1.502 0 .94.691 1.284 1.57 1.582.725.241 1.327.425 1.327 1.09 0 .447-.334.86-1.07.86-.311 0-.746-.069-1.036-.195l-.39-1.204h-.445l.089 1.617c.479.138.958.24 1.626.24 1.326 0 2.072-.768 2.072-1.605zm6.652-1.972v-1.801h-4.723l-.144 1.8h.512l.211-.79c.134-.505.357-.563 1.192-.563h.067v4.117c0 .092-.044.173-.19.195l-.523.092-.022.402h2.45l-.022-.402-.535-.092c-.133-.022-.189-.103-.189-.195V30.22h.09c.857 0 1.035.103 1.158.62l.178.734h.49zm7.31-1.801H74.21l.022.402.412.08c.267.057.334.149.334 1.674v1.159c0 .974-.467 1.49-1.325 1.49-.802 0-1.36-.458-1.36-1.594v-2.523c0-.092.057-.16.19-.195l.412-.091.023-.402h-2.206l.034.402.4.091c.146.034.19.103.19.195v2.833c0 1.261.791 1.892 2.027 1.892 1.226 0 1.994-.745 1.994-1.904V31.93c0-1.525.089-1.617.346-1.674l.39-.08.022-.402zm7.008 2.534c0-1.479-1.18-2.58-3.052-2.557l-2.038.023.022.402.4.091c.146.034.19.103.19.195v3.876c0 .092-.044.161-.19.195l-.4.092-.022.402h2.027c2.005 0 3.063-1.25 3.063-2.719zm-1.047.207c0 1.227-.68 2.064-1.882 2.064l-.58-.126V30.21h.257c1.459 0 2.205.883 2.205 2.305zm5.213 2.512l-.022-.402-.479-.092c-.145-.022-.19-.103-.19-.195v-3.876c0-.092.045-.172.19-.195l.479-.091.022-.402h-2.362l.023.402.49.091c.134.023.19.103.19.195v3.876c0 .092-.056.173-.19.195l-.49.092-.023.402h2.362zm7.274-2.65c0-1.617-1.114-2.717-2.707-2.717-1.504 0-2.74 1.215-2.74 2.798 0 1.605 1.114 2.706 2.706 2.706 1.504 0 2.74-1.204 2.74-2.787zm-1.058.092c0 1.525-.747 2.236-1.649 2.236s-1.67-.802-1.67-2.35c0-1.514.735-2.237 1.636-2.237.914 0 1.683.803 1.683 2.351zm6.861 1.078c0-.986-.713-1.342-1.67-1.663-.692-.229-1.26-.413-1.26-1.02 0-.402.301-.746.97-.746.278 0 .69.069.98.183l.323 1.102h.423v-1.755l-.446.126a5.457 5.457 0 0 0-1.158-.114c-1.292.011-1.905.733-1.905 1.502 0 .94.691 1.284 1.571 1.582.724.241 1.326.425 1.326 1.09 0 .447-.335.86-1.07.86-.312 0-.746-.069-1.036-.195l-.39-1.204h-.445l.089 1.617c.479.138.958.24 1.626.24 1.326 0 2.072-.768 2.072-1.605z" fill="#8D8C8A"/><path d="M10.595 23.859h1.104l5.832-15.595h.104l5.487 15.595h1.104l5.453-15.56c1.898-5.362 2.243-5.891 4.142-6.209l-1.023-.106.103-.564h-6.224l.103.564.863.142c2.933.352 2.898 1.129 1.242 6.068l-3.657 10.62h-.104L20.43 5.019c-.828-2.4-.794-2.823.898-2.929l1.208-.106.102-.564H12.561l.104.564 1.174.142c1.415.14 1.725.705 2.726 3.316l.587 1.764-4.383 11.714h-.104L7.835 4.948c-.795-2.329-.726-2.752.93-2.858l1.243-.106.104-.564H0l.104.564 1.139.142c1.483.14 1.725.6 2.726 3.351l6.626 18.382zm22.326-.388h7.834l-.104-.565-.656-.035c-1.38-.106-1.552-.212-1.552-.53V11.406c.793-.67 1.932-1.27 3.348-1.27 1.932 0 3.002.881 3.002 3.386v8.75c0 .318-.173.53-1.312.6l-.69.035-.104.565h7.8l-.104-.565-.517-.035c-1.588-.141-1.657-.318-1.657-.564v-9.738c0-1.553-.345-2.893-1.138-3.775-.726-.706-1.692-1.094-2.761-1.094-2.278 0-4.245 1.623-5.798 2.929l-.07-.036V.319l-5.659 1.133-.035.527 1.14.284c.896.248 1.104.53 1.104 1.588v18.42c0 .423-.38.53-1.346.6l-.622.035-.103.565zM55.21 5.054c1.484 0 2.209-1.235 2.209-2.258 0-1.058-.725-2.258-2.209-2.258-1.449 0-2.174 1.2-2.174 2.258 0 1.023.725 2.258 2.174 2.258zM51.656 23.47h7.835l-.105-.565-.55-.035c-1.416-.106-1.623-.212-1.623-.53V7.736l-5.59 1.553-.035.423.759.177c1.207.282 1.45.635 1.45 2.787v9.596c0 .423-.38.53-1.38.6l-.657.035-.104.565zm14.564.458c1.863 0 3.623-1.199 5.038-2.716l-.173-.353c-.759.6-1.725 1.023-2.864 1.023-1.76 0-2.622-.882-2.588-2.822l.206-9.173h4.833l.483-1.659h-5.316l.035-3.387-.518-.106-3.174 2.611-2.174 1.694-.311.882 2.761.106-.172 9.56c-.036 3 1.38 4.34 3.934 4.34zm11.733 0c1.864 0 3.624-1.199 5.039-2.716l-.173-.353c-.76.6-1.725 1.023-2.865 1.023-1.76 0-2.622-.882-2.588-2.822l.207-9.173h4.832l.483-1.659h-5.315l.035-3.387-.518-.106-3.175 2.611-2.174 1.694-.31.882 2.76.106-.172 9.56c-.034 3 1.38 4.34 3.934 4.34zm5.487-.458h7.73l-.103-.565-.587-.035c-1.311-.106-1.553-.212-1.553-.53V0l-5.625 1.553-.07.388 1.14.423c.897.247 1.139.53 1.139 2.223V22.27c0 .423-.31.53-1.312.6l-.656.035-.103.565zm15.9.529c3.036 0 5.21-1.764 6.66-4.798l-.38-.212c-1.173 1.905-2.657 2.576-4.486 2.576-3.037 0-5.211-2.646-5.245-6.598 0-.353.034-1.059.103-1.376.345 0 9.766.106 9.766.106.07-.353.104-.67.104-.988 0-2.858-2.105-5.045-5.694-5.045-4.556 0-7.903 3.74-7.903 8.573 0 4.41 3.002 7.762 7.075 7.762zm-3.313-11.008c.379-2.646 1.932-4.622 3.692-4.622 1.898 0 2.657 2.188 2.623 4.587l-6.315.035z" fill="#222"/></g></svg>
